<?xml version="1.0" encoding="UTF-8" standalone="no"?>
<!-- Created with Inkscape (http://www.inkscape.org/) -->

<svg
   xmlns:dc="http://purl.org/dc/elements/1.1/"
   xmlns:cc="http://creativecommons.org/ns#"
   xmlns:rdf="http://www.w3.org/1999/02/22-rdf-syntax-ns#"
   xmlns:svg="http://www.w3.org/2000/svg"
   xmlns="http://www.w3.org/2000/svg"
   xmlns:xlink="http://www.w3.org/1999/xlink"
   xmlns:sodipodi="http://sodipodi.sourceforge.net/DTD/sodipodi-0.dtd"
   xmlns:inkscape="http://www.inkscape.org/namespaces/inkscape"
   width="500"
   height="500"
   id="svg2"
   version="1.1"
   inkscape:version="0.48.4 r9939"
   sodipodi:docname="drw_eye.svg"
   inkscape:export-filename="Z:\drw_eye_xxhdpi.png"
   inkscape:export-xdpi="25.92"
   inkscape:export-ydpi="25.92">
  <defs
     id="defs4">
    <linearGradient
       inkscape:collect="always"
       id="linearGradient3773">
      <stop
         style="stop-color:#170000;stop-opacity:1;"
         offset="0"
         id="stop3775" />
      <stop
         style="stop-color:#170000;stop-opacity:0;"
         offset="1"
         id="stop3777" />
    </linearGradient>
    <linearGradient
       id="linearGradient3759">
      <stop
         style="stop-color:#f2e7f8;stop-opacity:0.77391303;"
         offset="0"
         id="stop3761" />
      <stop
         style="stop-color:#000000;stop-opacity:0;"
         offset="1"
         id="stop3763" />
    </linearGradient>
    <radialGradient
       inkscape:collect="always"
       xlink:href="#linearGradient3773"
       id="radialGradient3779"
       cx="258.09396"
       cy="234.32988"
       fx="258.09396"
       fy="234.32988"
       r="55.558392"
       gradientUnits="userSpaceOnUse" />
    <filter
       inkscape:collect="always"
       id="filter3781">
      <feGaussianBlur
         inkscape:collect="always"
         stdDeviation="0.9107933"
         id="feGaussianBlur3783" />
    </filter>
    <radialGradient
       inkscape:collect="always"
       xlink:href="#linearGradient3773-7"
       id="radialGradient3779-1"
       cx="258.09396"
       cy="234.32988"
       fx="258.09396"
       fy="234.32988"
       r="55.558392"
       gradientUnits="userSpaceOnUse" />
    <linearGradient
       inkscape:collect="always"
       id="linearGradient3773-7">
      <stop
         style="stop-color:#170000;stop-opacity:1;"
         offset="0"
         id="stop3775-4" />
      <stop
         style="stop-color:#170000;stop-opacity:0;"
         offset="1"
         id="stop3777-0" />
    </linearGradient>
  </defs>
  <sodipodi:namedview
     id="base"
     pagecolor="#ffffff"
     bordercolor="#666666"
     borderopacity="1.0"
     inkscape:pageopacity="0.0"
     inkscape:pageshadow="2"
     inkscape:zoom="0.49497475"
     inkscape:cx="66.500983"
     inkscape:cy="265.77966"
     inkscape:document-units="px"
     inkscape:current-layer="layer1"
     showgrid="false"
     inkscape:window-width="1246"
     inkscape:window-height="749"
     inkscape:window-x="116"
     inkscape:window-y="-4"
     inkscape:window-maximized="1" />
  <metadata
     id="metadata7">
    <rdf:RDF>
      <cc:Work
         rdf:about="">
        <dc:format>image/svg+xml</dc:format>
        <dc:type
           rdf:resource="http://purl.org/dc/dcmitype/StillImage" />
        <dc:title />
      </cc:Work>
    </rdf:RDF>
  </metadata>
  <g
     inkscape:label="Layer 1"
     inkscape:groupmode="layer"
     id="layer1"
     transform="translate(0,-552.36218)">
    <path
       sodipodi:type="arc"
       style="fill:#c8c8c8;stroke:#000000;stroke-width:5.96617460000000040;stroke-miterlimit:4;stroke-opacity:1;stroke-dasharray:none;fill-opacity:1"
       id="path2987"
       sodipodi:cx="250.51784"
       sodipodi:cy="229.27911"
       sodipodi:rx="232.33508"
       sodipodi:ry="91.923882"
       d="m 482.85292,229.27911 c 0,50.76816 -104.01996,91.92389 -232.33508,91.92389 -128.31513,0 -232.335085,-41.15573 -232.335085,-91.92389 0,-50.76815 104.019955,-91.92388 232.335085,-91.92388 128.31512,0 232.33508,41.15573 232.33508,91.92388 z"
       transform="matrix(0.89475361,0,0,0.95994057,27.732476,577.29026)" />
    <path
       sodipodi:type="arc"
       style="fill:#7b7b7b;fill-opacity:1;stroke:#000000;stroke-width:5;stroke-miterlimit:4;stroke-opacity:1;stroke-dasharray:none"
       id="path3757"
       sodipodi:cx="272.74118"
       sodipodi:cy="224.22835"
       sodipodi:rx="54.548237"
       sodipodi:ry="54.548237"
       d="m 327.28942,224.22835 c 0,30.12616 -24.42208,54.54823 -54.54824,54.54823 -30.12616,0 -54.54824,-24.42207 -54.54824,-54.54823 0,-30.12616 24.42208,-54.54824 54.54824,-54.54824 30.12616,0 54.54824,24.42208 54.54824,54.54824 z"
       transform="matrix(1.1742725,0,0,1.1742725,-72.4196,534.37146)" />
    <path
       sodipodi:type="arc"
       style="fill:#b3b3b3;stroke:none"
       id="path3767"
       sodipodi:cx="269.07938"
       sodipodi:cy="189.50436"
       sodipodi:rx="7.9549513"
       sodipodi:ry="3.4092648"
       d="m 277.03433,189.50436 c 0,1.88289 -3.56156,3.40927 -7.95495,3.40927 -4.3934,0 -7.95496,-1.52638 -7.95496,-3.40927 0,-1.88288 3.56156,-3.40926 7.95496,-3.40926 4.39339,0 7.95495,1.52638 7.95495,3.40926 z"
       transform="matrix(1.1030787,0.40265756,-0.40265756,1.1030787,47.35951,435.36447)"
       inkscape:transform-center-x="10.972298"
       inkscape:transform-center-y="4.9400128" />
    <path
       sodipodi:type="arc"
       style="opacity:0.6125;fill:url(#radialGradient3779);fill-opacity:1;stroke:none;filter:url(#filter3781)"
       id="path3771"
       sodipodi:cx="258.09396"
       sodipodi:cy="234.32988"
       sodipodi:rx="55.558392"
       sodipodi:ry="55.558392"
       d="m 313.65236,234.32988 c 0,30.68405 -24.87434,55.55839 -55.5584,55.55839 -30.68405,0 -55.55839,-24.87434 -55.55839,-55.55839 0,-30.68405 24.87434,-55.55839 55.55839,-55.55839 30.68406,0 55.5584,24.87434 55.5584,55.55839 z"
       transform="matrix(0.86613959,0,0,0.86613959,16.59719,594.71425)" />
    <path
       sodipodi:type="arc"
       style="fill:#170000;fill-opacity:1;stroke:none"
       id="path3769"
       sodipodi:cx="258.72531"
       sodipodi:cy="237.99168"
       sodipodi:rx="10.480332"
       sodipodi:ry="10.480332"
       d="m 269.20564,237.99168 c 0,5.78813 -4.6922,10.48034 -10.48033,10.48034 -5.78813,0 -10.48033,-4.69221 -10.48033,-10.48034 0,-5.78812 4.6922,-10.48033 10.48033,-10.48033 5.78813,0 10.48033,4.69221 10.48033,10.48033 z"
       transform="matrix(2.1929185,0,0,2.1929185,-319.06582,276.22512)" />
  </g>
</svg>
